<!-- Copyright © 2015 MODULUS Sp. z o. o. / FUTURAMO™ -->
<svg xmlns="http://www.w3.org/2000/svg" x="0px" y="0px" width="64px" height="64px" viewBox="0 0 32 32">
	<path fill="#3f0166"
		  d="M0,32h32V0H0V32z M2,2h28v4H2V2z M2,8h28v22H2V8z M22.997,15.647L23,16.331 c-0.21,2.4-2.338,4.789-6.506,7.365L16,24l-0.494-0.305C11.338,21.12,9.21,18.731,9,16.331l0.003-0.684 C9.215,13.331,10.982,12,12.545,12c2.531,0,3.362,2.38,3.362,2.38S16.475,12,19.456,12C21.019,12,22.785,13.331,22.997,15.647z"></path>
</svg>